<mxfile host="app.diagrams.net" modified="2023-05-06T09:18:10.192Z" agent="Mozilla/5.0 (X11; Linux x86_64) AppleWebKit/537.36 (KHTML, like Gecko) Chrome/112.0.0.0 Safari/537.36" etag="ez0Ib8wGQtG8uhiD0qCU" version="21.2.9" type="device">
  <diagram name="Page-1" id="lEkKvj4Tj51AQ1djOHv4">
    <mxGraphModel dx="1434" dy="775" grid="1" gridSize="10" guides="1" tooltips="1" connect="1" arrows="1" fold="1" page="1" pageScale="1" pageWidth="850" pageHeight="1100" math="0" shadow="0">
      <root>
        <mxCell id="0" />
        <mxCell id="1" parent="0" />
        <mxCell id="DkFDDsoo23SfyzMX4IVC-1" style="edgeStyle=orthogonalEdgeStyle;rounded=0;orthogonalLoop=1;jettySize=auto;html=1;entryX=0.5;entryY=1;entryDx=0;entryDy=0;" edge="1" parent="1" target="DkFDDsoo23SfyzMX4IVC-11">
          <mxGeometry relative="1" as="geometry">
            <mxPoint x="160" y="230" as="targetPoint" />
            <mxPoint x="160" y="350" as="sourcePoint" />
          </mxGeometry>
        </mxCell>
        <mxCell id="DkFDDsoo23SfyzMX4IVC-2" value="&lt;font style=&quot;font-size: 14px;&quot;&gt;1&lt;/font&gt;" style="edgeLabel;html=1;align=center;verticalAlign=middle;resizable=0;points=[];fontSize=12;" vertex="1" connectable="0" parent="DkFDDsoo23SfyzMX4IVC-1">
          <mxGeometry x="0.2444" y="-3" relative="1" as="geometry">
            <mxPoint x="-18" y="15" as="offset" />
          </mxGeometry>
        </mxCell>
        <mxCell id="DkFDDsoo23SfyzMX4IVC-3" style="edgeStyle=orthogonalEdgeStyle;rounded=0;orthogonalLoop=1;jettySize=auto;html=1;exitX=1;exitY=0.5;exitDx=0;exitDy=0;" edge="1" parent="1" source="DkFDDsoo23SfyzMX4IVC-9" target="DkFDDsoo23SfyzMX4IVC-16">
          <mxGeometry relative="1" as="geometry">
            <Array as="points" />
            <mxPoint x="235" y="390" as="sourcePoint" />
          </mxGeometry>
        </mxCell>
        <mxCell id="DkFDDsoo23SfyzMX4IVC-4" value="&lt;font style=&quot;font-size: 14px;&quot;&gt;2&lt;/font&gt;" style="edgeLabel;html=1;align=center;verticalAlign=middle;resizable=0;points=[];" vertex="1" connectable="0" parent="DkFDDsoo23SfyzMX4IVC-3">
          <mxGeometry x="0.2667" y="3" relative="1" as="geometry">
            <mxPoint x="-15" y="-17" as="offset" />
          </mxGeometry>
        </mxCell>
        <mxCell id="DkFDDsoo23SfyzMX4IVC-5" style="rounded=0;orthogonalLoop=1;jettySize=auto;html=1;edgeStyle=orthogonalEdgeStyle;" edge="1" parent="1" target="DkFDDsoo23SfyzMX4IVC-30">
          <mxGeometry relative="1" as="geometry">
            <Array as="points">
              <mxPoint x="20" y="420" />
              <mxPoint x="20" y="40" />
              <mxPoint x="775" y="40" />
            </Array>
            <mxPoint x="110.39216291753883" y="420" as="sourcePoint" />
          </mxGeometry>
        </mxCell>
        <mxCell id="DkFDDsoo23SfyzMX4IVC-6" style="edgeStyle=orthogonalEdgeStyle;rounded=0;orthogonalLoop=1;jettySize=auto;html=1;" edge="1" parent="1" target="DkFDDsoo23SfyzMX4IVC-24">
          <mxGeometry relative="1" as="geometry">
            <Array as="points">
              <mxPoint x="30" y="410" />
              <mxPoint x="30" y="60" />
              <mxPoint x="575" y="60" />
            </Array>
            <mxPoint x="95.04809471616704" y="410" as="sourcePoint" />
          </mxGeometry>
        </mxCell>
        <mxCell id="DkFDDsoo23SfyzMX4IVC-7" style="edgeStyle=orthogonalEdgeStyle;rounded=0;orthogonalLoop=1;jettySize=auto;html=1;entryX=0.445;entryY=0.008;entryDx=0;entryDy=0;entryPerimeter=0;" edge="1" parent="1" source="DkFDDsoo23SfyzMX4IVC-9" target="DkFDDsoo23SfyzMX4IVC-21">
          <mxGeometry relative="1" as="geometry">
            <Array as="points">
              <mxPoint x="50" y="390" />
              <mxPoint x="50" y="80" />
              <mxPoint x="394" y="80" />
            </Array>
          </mxGeometry>
        </mxCell>
        <mxCell id="DkFDDsoo23SfyzMX4IVC-8" value="&lt;font style=&quot;font-size: 14px;&quot;&gt;3&lt;/font&gt;" style="edgeLabel;html=1;align=center;verticalAlign=middle;resizable=0;points=[];" vertex="1" connectable="0" parent="DkFDDsoo23SfyzMX4IVC-7">
          <mxGeometry x="0.687" y="2" relative="1" as="geometry">
            <mxPoint x="89" y="22" as="offset" />
          </mxGeometry>
        </mxCell>
        <mxCell id="DkFDDsoo23SfyzMX4IVC-9" value="" style="ellipse;whiteSpace=wrap;html=1;shadow=0;labelBackgroundColor=none;fillStyle=auto;fontFamily=Helvetica;fontSize=12;gradientDirection=north;" vertex="1" parent="1">
          <mxGeometry x="65" y="350" width="150" height="80" as="geometry" />
        </mxCell>
        <mxCell id="DkFDDsoo23SfyzMX4IVC-10" value="ServerHeistMuseum&lt;br&gt;Assault Party 1" style="ellipse;whiteSpace=wrap;html=1;shadow=0;labelBackgroundColor=none;fillStyle=auto;strokeColor=default;fontFamily=Helvetica;fontSize=12;fontColor=default;fillColor=#969696;gradientColor=none;gradientDirection=north;" vertex="1" parent="1">
          <mxGeometry x="75" y="358.75" width="130" height="62.5" as="geometry" />
        </mxCell>
        <mxCell id="DkFDDsoo23SfyzMX4IVC-11" value="scon" style="ellipse;whiteSpace=wrap;html=1;shadow=0;labelBackgroundColor=none;fillStyle=auto;fontFamily=Helvetica;fontSize=12;gradientDirection=north;" vertex="1" parent="1">
          <mxGeometry x="107.5" y="120" width="105" height="60" as="geometry" />
        </mxCell>
        <mxCell id="DkFDDsoo23SfyzMX4IVC-12" style="rounded=0;orthogonalLoop=1;jettySize=auto;html=1;entryX=0.308;entryY=1.014;entryDx=0;entryDy=0;entryPerimeter=0;" edge="1" parent="1" source="DkFDDsoo23SfyzMX4IVC-16" target="DkFDDsoo23SfyzMX4IVC-24">
          <mxGeometry relative="1" as="geometry" />
        </mxCell>
        <mxCell id="DkFDDsoo23SfyzMX4IVC-13" value="&lt;font style=&quot;font-size: 14px;&quot;&gt;6&lt;/font&gt;" style="edgeLabel;html=1;align=center;verticalAlign=middle;resizable=0;points=[];" vertex="1" connectable="0" parent="DkFDDsoo23SfyzMX4IVC-12">
          <mxGeometry x="0.1504" y="-1" relative="1" as="geometry">
            <mxPoint x="22" y="-8" as="offset" />
          </mxGeometry>
        </mxCell>
        <mxCell id="DkFDDsoo23SfyzMX4IVC-14" value="" style="edgeStyle=orthogonalEdgeStyle;rounded=0;orthogonalLoop=1;jettySize=auto;html=1;" edge="1" parent="1" source="DkFDDsoo23SfyzMX4IVC-16" target="DkFDDsoo23SfyzMX4IVC-25">
          <mxGeometry relative="1" as="geometry">
            <Array as="points">
              <mxPoint x="575" y="393" />
              <mxPoint x="575" y="393" />
            </Array>
          </mxGeometry>
        </mxCell>
        <mxCell id="DkFDDsoo23SfyzMX4IVC-15" value="&lt;font style=&quot;font-size: 14px;&quot;&gt;7&lt;/font&gt;" style="edgeLabel;html=1;align=center;verticalAlign=middle;resizable=0;points=[];" vertex="1" connectable="0" parent="DkFDDsoo23SfyzMX4IVC-14">
          <mxGeometry x="-0.25" y="3" relative="1" as="geometry">
            <mxPoint x="15" y="-7" as="offset" />
          </mxGeometry>
        </mxCell>
        <mxCell id="DkFDDsoo23SfyzMX4IVC-16" value="assaultPartyInter" style="ellipse;whiteSpace=wrap;html=1;shadow=0;labelBackgroundColor=none;fillStyle=auto;fontFamily=Helvetica;fontSize=12;gradientDirection=north;" vertex="1" parent="1">
          <mxGeometry x="345" y="358.75" width="110" height="62.5" as="geometry" />
        </mxCell>
        <mxCell id="DkFDDsoo23SfyzMX4IVC-17" style="rounded=0;orthogonalLoop=1;jettySize=auto;html=1;entryX=1;entryY=0.5;entryDx=0;entryDy=0;" edge="1" parent="1" source="DkFDDsoo23SfyzMX4IVC-21" target="DkFDDsoo23SfyzMX4IVC-11">
          <mxGeometry relative="1" as="geometry">
            <mxPoint x="225" y="195" as="targetPoint" />
          </mxGeometry>
        </mxCell>
        <mxCell id="DkFDDsoo23SfyzMX4IVC-18" value="&lt;font style=&quot;font-size: 14px;&quot;&gt;4&lt;/font&gt;" style="edgeLabel;html=1;align=center;verticalAlign=middle;resizable=0;points=[];rotation=0;" vertex="1" connectable="0" parent="DkFDDsoo23SfyzMX4IVC-17">
          <mxGeometry x="-0.1247" relative="1" as="geometry">
            <mxPoint x="-11" y="-15" as="offset" />
          </mxGeometry>
        </mxCell>
        <mxCell id="DkFDDsoo23SfyzMX4IVC-19" style="rounded=0;orthogonalLoop=1;jettySize=auto;html=1;" edge="1" parent="1" source="DkFDDsoo23SfyzMX4IVC-21" target="DkFDDsoo23SfyzMX4IVC-16">
          <mxGeometry relative="1" as="geometry" />
        </mxCell>
        <mxCell id="DkFDDsoo23SfyzMX4IVC-20" value="&lt;font style=&quot;font-size: 14px;&quot;&gt;5&lt;/font&gt;" style="edgeLabel;html=1;align=center;verticalAlign=middle;resizable=0;points=[];" vertex="1" connectable="0" parent="DkFDDsoo23SfyzMX4IVC-19">
          <mxGeometry x="0.302" y="4" relative="1" as="geometry">
            <mxPoint x="-24" y="17" as="offset" />
          </mxGeometry>
        </mxCell>
        <mxCell id="DkFDDsoo23SfyzMX4IVC-21" value="cliProxy" style="ellipse;whiteSpace=wrap;html=1;shadow=0;labelBackgroundColor=none;fillStyle=auto;strokeColor=default;fontFamily=Helvetica;fontSize=12;fontColor=default;fillColor=#969696;gradientColor=none;gradientDirection=north;" vertex="1" parent="1">
          <mxGeometry x="345" y="117.5" width="110" height="65" as="geometry" />
        </mxCell>
        <mxCell id="DkFDDsoo23SfyzMX4IVC-22" style="edgeStyle=orthogonalEdgeStyle;rounded=0;orthogonalLoop=1;jettySize=auto;html=1;entryX=0;entryY=0.5;entryDx=0;entryDy=0;" edge="1" parent="1" source="DkFDDsoo23SfyzMX4IVC-24" target="DkFDDsoo23SfyzMX4IVC-30">
          <mxGeometry relative="1" as="geometry" />
        </mxCell>
        <mxCell id="DkFDDsoo23SfyzMX4IVC-23" value="&lt;font style=&quot;font-size: 14px;&quot;&gt;8&lt;/font&gt;" style="edgeLabel;html=1;align=center;verticalAlign=middle;resizable=0;points=[];" vertex="1" connectable="0" parent="DkFDDsoo23SfyzMX4IVC-22">
          <mxGeometry x="0.3208" y="-2" relative="1" as="geometry">
            <mxPoint x="-16" y="-22" as="offset" />
          </mxGeometry>
        </mxCell>
        <mxCell id="DkFDDsoo23SfyzMX4IVC-24" value="assaultParty" style="ellipse;whiteSpace=wrap;html=1;shadow=0;labelBackgroundColor=none;fillStyle=auto;fontFamily=Helvetica;fontSize=12;gradientDirection=north;" vertex="1" parent="1">
          <mxGeometry x="520" y="120" width="110" height="60" as="geometry" />
        </mxCell>
        <mxCell id="DkFDDsoo23SfyzMX4IVC-25" value="outMessage, inMessage" style="ellipse;whiteSpace=wrap;html=1;shadow=0;labelBackgroundColor=none;fillStyle=auto;fontFamily=Helvetica;fontSize=12;gradientDirection=north;" vertex="1" parent="1">
          <mxGeometry x="560" y="358.75" width="110" height="61.25" as="geometry" />
        </mxCell>
        <mxCell id="DkFDDsoo23SfyzMX4IVC-26" style="rounded=0;orthogonalLoop=1;jettySize=auto;html=1;entryX=0.733;entryY=-0.012;entryDx=0;entryDy=0;entryPerimeter=0;" edge="1" parent="1" source="DkFDDsoo23SfyzMX4IVC-30" target="DkFDDsoo23SfyzMX4IVC-25">
          <mxGeometry relative="1" as="geometry" />
        </mxCell>
        <mxCell id="DkFDDsoo23SfyzMX4IVC-27" value="&lt;font style=&quot;font-size: 14px;&quot;&gt;2&lt;/font&gt;" style="edgeLabel;html=1;align=center;verticalAlign=middle;resizable=0;points=[];" vertex="1" connectable="0" parent="DkFDDsoo23SfyzMX4IVC-26">
          <mxGeometry x="-0.2257" relative="1" as="geometry">
            <mxPoint x="-22" as="offset" />
          </mxGeometry>
        </mxCell>
        <mxCell id="DkFDDsoo23SfyzMX4IVC-28" style="rounded=0;orthogonalLoop=1;jettySize=auto;html=1;" edge="1" parent="1" source="DkFDDsoo23SfyzMX4IVC-30" target="DkFDDsoo23SfyzMX4IVC-33">
          <mxGeometry relative="1" as="geometry" />
        </mxCell>
        <mxCell id="DkFDDsoo23SfyzMX4IVC-29" value="&lt;font style=&quot;font-size: 14px;&quot;&gt;9&lt;/font&gt;" style="edgeLabel;html=1;align=center;verticalAlign=middle;resizable=0;points=[];" vertex="1" connectable="0" parent="DkFDDsoo23SfyzMX4IVC-28">
          <mxGeometry x="0.1847" y="2" relative="1" as="geometry">
            <mxPoint x="13" y="-15" as="offset" />
          </mxGeometry>
        </mxCell>
        <mxCell id="DkFDDsoo23SfyzMX4IVC-30" value="reposStub" style="ellipse;whiteSpace=wrap;html=1;shadow=0;labelBackgroundColor=none;fillStyle=auto;fontFamily=Helvetica;fontSize=12;gradientDirection=north;" vertex="1" parent="1">
          <mxGeometry x="720" y="120" width="110" height="60" as="geometry" />
        </mxCell>
        <mxCell id="DkFDDsoo23SfyzMX4IVC-31" value="&lt;font style=&quot;font-size: 14px;&quot;&gt;2&lt;/font&gt;" style="edgeLabel;html=1;align=center;verticalAlign=middle;resizable=0;points=[];" vertex="1" connectable="0" parent="1">
          <mxGeometry x="250" y="421.25" as="geometry">
            <mxPoint x="335" y="-333" as="offset" />
          </mxGeometry>
        </mxCell>
        <mxCell id="DkFDDsoo23SfyzMX4IVC-32" value="&lt;font style=&quot;font-size: 14px;&quot;&gt;2&lt;/font&gt;" style="edgeLabel;html=1;align=center;verticalAlign=middle;resizable=0;points=[];" vertex="1" connectable="0" parent="1">
          <mxGeometry x="300" y="300" as="geometry">
            <mxPoint x="486" y="-213" as="offset" />
          </mxGeometry>
        </mxCell>
        <mxCell id="DkFDDsoo23SfyzMX4IVC-33" value="com" style="ellipse;whiteSpace=wrap;html=1;shadow=0;labelBackgroundColor=none;fillStyle=auto;fontFamily=Helvetica;fontSize=12;gradientDirection=north;" vertex="1" parent="1">
          <mxGeometry x="722.5" y="357.5" width="107.5" height="62.5" as="geometry" />
        </mxCell>
        <mxCell id="DkFDDsoo23SfyzMX4IVC-34" value="&lt;font style=&quot;font-size: 17px;&quot;&gt;1 -&amp;nbsp; instantiate, start, accept, end&lt;br&gt;2 -&amp;nbsp; instantiate&lt;br&gt;3 -&amp;nbsp; instantiate, start&lt;br&gt;4 -&amp;nbsp; readObject, writeObject, close&lt;br style=&quot;border-color: var(--border-color);&quot;&gt;5 -&amp;nbsp; processAndReply&lt;br&gt;6 -&amp;nbsp; initAssaultPartyID, initAssaultPartyDist, addThievesToParty, moveFirstPartyMember, crawlIn,&amp;nbsp;&lt;br&gt;&lt;span style=&quot;&quot;&gt;	&lt;/span&gt;&lt;span style=&quot;white-space: pre;&quot;&gt;	&lt;/span&gt;getAssaultP_roomID, reverseDirection, crawlOut, getThiefIndex, resetAssaultParty, shutdown&lt;br&gt;7 -&amp;nbsp; getMsgType, getAssaultPartyID, getDistFromOutsideArray, getAssaultPBuild, getAssignRoomId,&amp;nbsp;&lt;br&gt;&lt;span style=&quot;&quot;&gt;	&lt;/span&gt;&lt;span style=&quot;white-space: pre;&quot;&gt;	&lt;/span&gt;getOrdinaryID, getOrdinaryAPID, getOrdinaryAPPos, getMaxDispOT, getOrdinaryTState, &lt;span style=&quot;white-space: pre;&quot;&gt;	&lt;/span&gt;getMoveFirstM, getOrdinaryTCV&lt;br&gt;8 -&amp;nbsp; setMRoom_DT_outsideG, setAParty_Elem_ID, setAssaultParty_RId, setAParty_Elem_Pos,&lt;br&gt;&lt;span style=&quot;&quot;&gt;	&lt;/span&gt;&lt;span style=&quot;white-space: pre;&quot;&gt;	&lt;/span&gt;setAParty_Elem_CV, setOTState&lt;br&gt;9 -&amp;nbsp; instantiate, open, writeObject, readObject, close&lt;br style=&quot;border-color: var(--border-color);&quot;&gt;&lt;/font&gt;" style="text;html=1;strokeColor=none;fillColor=none;align=left;verticalAlign=middle;whiteSpace=wrap;rounded=0;" vertex="1" parent="1">
          <mxGeometry x="10" y="480" width="820" height="310" as="geometry" />
        </mxCell>
      </root>
    </mxGraphModel>
  </diagram>
</mxfile>
